<svg width="1016" height="316" viewBox="0 0 1016 316" fill="none" xmlns="http://www.w3.org/2000/svg">
<g clip-path="url(#clip0_55_331)">
<path d="M0.631348 313.047V2.95325H42.7419L52.6568 153.57L54.3278 203.628H54.5506L56.2217 153.57L66.1366 2.95325H108.247V313.047H82.4015L83.2928 165.088L86.0778 32.9659H85.855L66.0252 313.047H42.8533L23.0235 32.9659H22.8006L25.5857 165.088L26.477 313.047H0.631348ZM164.722 313.047L162.494 261.66H145.226L142.998 313.047H117.041L137.985 2.95325H171.852L193.687 313.047H164.722ZM146.34 235.08H161.38L157.147 135.85L153.693 36.3991H153.47L150.685 135.85L146.34 235.08ZM202.115 313.047V2.95325H233.531L253.806 178.378L262.161 262.435H262.384L255.811 95.5383L254.252 2.95325H280.766V313.047H249.35L229.075 137.622L220.608 51.6822H220.385L227.069 226.664L228.629 313.047H202.115ZM352.2 306.623C346.333 312.678 337.903 315.705 326.911 315.705C315.92 315.705 307.453 312.678 301.511 306.623C295.644 300.569 292.711 291.931 292.711 280.708V215.81H320.339V280.708C320.339 286.91 322.53 290.011 326.911 290.011C331.293 290.011 333.484 286.91 333.484 280.708V242.833C333.484 225.925 330.848 209.239 325.575 192.775L301.511 117.023C295.644 98.4916 292.711 79.1477 292.711 58.9916V35.2916C292.711 24.0692 295.644 15.4308 301.511 9.37664C307.453 3.32242 315.92 0.295319 326.911 0.295319C337.903 0.295319 346.333 3.32242 352.2 9.37664C358.142 15.4308 361.112 24.0692 361.112 35.2916V84.685H333.484V35.2916C333.484 29.0897 331.293 25.9888 326.911 25.9888C322.53 25.9888 320.339 29.0897 320.339 35.2916V58.9916C320.339 74.7178 323.049 91.2561 328.471 108.607L352.311 184.358C358.179 202.89 361.112 222.381 361.112 242.833V280.708C361.112 291.931 358.142 300.569 352.2 306.623ZM432.627 306.623C426.759 312.678 418.33 315.705 407.338 315.705C396.346 315.705 387.88 312.678 381.938 306.623C376.071 300.569 373.137 291.931 373.137 280.708V35.2916C373.137 24.0692 376.071 15.4308 381.938 9.37664C387.88 3.32242 396.346 0.295319 407.338 0.295319C418.33 0.295319 426.759 3.32242 432.627 9.37664C438.568 15.4308 441.539 24.0692 441.539 35.2916V280.708C441.539 291.931 438.568 300.569 432.627 306.623ZM400.765 280.708C400.765 286.91 402.956 290.011 407.338 290.011C411.72 290.011 413.911 286.91 413.911 280.708V35.2916C413.911 29.0897 411.72 25.9888 407.338 25.9888C402.956 25.9888 400.765 29.0897 400.765 35.2916V280.708ZM514.003 306.623C508.136 312.678 499.706 315.705 488.715 315.705C477.723 315.705 469.256 312.678 463.315 306.623C457.447 300.569 454.514 291.931 454.514 280.708V35.2916C454.514 24.0692 457.447 15.4308 463.315 9.37664C469.256 3.32242 477.723 0.295319 488.715 0.295319C499.706 0.295319 508.136 3.32242 514.003 9.37664C519.945 15.4308 522.916 24.0692 522.916 35.2916V280.708C522.916 291.931 519.945 300.569 514.003 306.623ZM482.142 280.708C482.142 286.91 484.333 290.011 488.715 290.011C493.097 290.011 495.287 286.91 495.287 280.708V35.2916C495.287 29.0897 493.097 25.9888 488.715 25.9888C484.333 25.9888 482.142 29.0897 482.142 35.2916V280.708ZM604.292 282.037C604.292 290.159 604.663 296.287 605.406 300.421C606.149 304.482 607.56 308.691 609.639 313.047H580.229C578.744 310.167 577.778 306.476 577.332 301.972C576.887 297.394 576.664 290.75 576.664 282.037V179.485C576.664 176.606 576.07 174.575 574.882 173.394C573.768 172.139 571.985 171.511 569.534 171.511H563.518V313.047H535.89V2.95325H569.98C582.383 2.95325 591.184 5.72194 596.382 11.2593C601.656 16.7229 604.292 25.472 604.292 37.5065V133.303C604.292 140.539 603.252 146.113 601.173 150.026C599.093 153.939 595.565 156.634 590.589 158.111C595.565 159.44 599.093 162.024 601.173 165.863C603.252 169.629 604.292 175.018 604.292 182.032V282.037ZM576.664 136.958V36.6206C576.664 33.7411 576.07 31.7107 574.882 30.5294C573.768 29.2743 571.985 28.6467 569.534 28.6467H563.518V144.932H569.534C571.985 144.932 573.768 144.341 574.882 143.16C576.07 141.905 576.664 139.837 576.664 136.958ZM726.575 282.037C726.575 290.159 726.947 296.287 727.689 300.421C728.432 304.482 729.843 308.691 731.923 313.047H702.512C701.027 310.167 700.061 306.476 699.616 301.972C699.17 297.394 698.947 290.75 698.947 282.037V179.485C698.947 176.606 698.353 174.575 697.165 173.394C696.051 172.139 694.268 171.511 691.817 171.511H685.802V313.047H658.174V2.95325H692.263C704.666 2.95325 713.467 5.72194 718.666 11.2593C723.939 16.7229 726.575 25.472 726.575 37.5065V133.303C726.575 140.539 725.536 146.113 723.456 150.026C721.376 153.939 717.849 156.634 712.873 158.111C717.849 159.44 721.376 162.024 723.456 165.863C725.536 169.629 726.575 175.018 726.575 182.032V282.037ZM698.947 136.958V36.6206C698.947 33.7411 698.353 31.7107 697.165 30.5294C696.051 29.2743 694.268 28.6467 691.817 28.6467H685.802V144.932H691.817C694.268 144.932 696.051 144.341 697.165 143.16C698.353 141.905 698.947 139.837 698.947 136.958ZM799.038 306.623C793.171 312.678 784.741 315.705 773.749 315.705C762.758 315.705 754.291 312.678 748.349 306.623C742.484 300.569 739.55 291.931 739.55 280.708V35.2916C739.55 24.0692 742.484 15.4308 748.349 9.37664C754.291 3.32242 762.758 0.295319 773.749 0.295319C784.741 0.295319 793.171 3.32242 799.038 9.37664C804.98 15.4308 807.95 24.0692 807.95 35.2916V280.708C807.95 291.931 804.98 300.569 799.038 306.623ZM767.177 280.708C767.177 286.91 769.368 290.011 773.749 290.011C778.131 290.011 780.322 286.91 780.322 280.708V35.2916C780.322 29.0897 778.131 25.9888 773.749 25.9888C769.368 25.9888 767.177 29.0897 767.177 35.2916V280.708ZM870.388 28.6467H848.553V129.649H865.487V157.114H848.553V287.353H870.388V313.047H820.925V2.95325H870.388V28.6467ZM928.266 28.6467H906.431V129.649H923.364V157.114H906.431V287.353H928.266V313.047H878.803V2.95325H928.266V28.6467ZM936.681 313.047V2.95325H968.097L988.372 178.378L996.727 262.435H996.95L990.377 95.5383L988.818 2.95325H1015.33V313.047H983.916L963.64 137.622L955.174 51.6822H954.951L961.635 226.664L963.195 313.047H936.681Z" fill="#D9D9D9"/>
<path d="M0.631348 313.047V2.95325H42.7419L52.6568 153.57L54.3278 203.628H54.5506L56.2217 153.57L66.1366 2.95325H108.247V313.047H82.4015L83.2928 165.088L86.0778 32.9659H85.855L66.0252 313.047H42.8533L23.0235 32.9659H22.8006L25.5857 165.088L26.477 313.047H0.631348ZM164.722 313.047L162.494 261.66H145.226L142.998 313.047H117.041L137.985 2.95325H171.852L193.687 313.047H164.722ZM146.34 235.08H161.38L157.147 135.85L153.693 36.3991H153.47L150.685 135.85L146.34 235.08ZM202.115 313.047V2.95325H233.531L253.806 178.378L262.161 262.435H262.384L255.811 95.5383L254.252 2.95325H280.766V313.047H249.35L229.075 137.622L220.608 51.6822H220.385L227.069 226.664L228.629 313.047H202.115ZM352.2 306.623C346.333 312.678 337.903 315.705 326.911 315.705C315.92 315.705 307.453 312.678 301.511 306.623C295.644 300.569 292.711 291.931 292.711 280.708V215.81H320.339V280.708C320.339 286.91 322.53 290.011 326.911 290.011C331.293 290.011 333.484 286.91 333.484 280.708V242.833C333.484 225.925 330.848 209.239 325.575 192.775L301.511 117.023C295.644 98.4916 292.711 79.1477 292.711 58.9916V35.2916C292.711 24.0692 295.644 15.4308 301.511 9.37664C307.453 3.32242 315.92 0.295319 326.911 0.295319C337.903 0.295319 346.333 3.32242 352.2 9.37664C358.142 15.4308 361.112 24.0692 361.112 35.2916V84.685H333.484V35.2916C333.484 29.0897 331.293 25.9888 326.911 25.9888C322.53 25.9888 320.339 29.0897 320.339 35.2916V58.9916C320.339 74.7178 323.049 91.2561 328.471 108.607L352.311 184.358C358.179 202.89 361.112 222.381 361.112 242.833V280.708C361.112 291.931 358.142 300.569 352.2 306.623ZM432.627 306.623C426.759 312.678 418.33 315.705 407.338 315.705C396.346 315.705 387.88 312.678 381.938 306.623C376.071 300.569 373.137 291.931 373.137 280.708V35.2916C373.137 24.0692 376.071 15.4308 381.938 9.37664C387.88 3.32242 396.346 0.295319 407.338 0.295319C418.33 0.295319 426.759 3.32242 432.627 9.37664C438.568 15.4308 441.539 24.0692 441.539 35.2916V280.708C441.539 291.931 438.568 300.569 432.627 306.623ZM400.765 280.708C400.765 286.91 402.956 290.011 407.338 290.011C411.72 290.011 413.911 286.91 413.911 280.708V35.2916C413.911 29.0897 411.72 25.9888 407.338 25.9888C402.956 25.9888 400.765 29.0897 400.765 35.2916V280.708ZM514.003 306.623C508.136 312.678 499.706 315.705 488.715 315.705C477.723 315.705 469.256 312.678 463.315 306.623C457.447 300.569 454.514 291.931 454.514 280.708V35.2916C454.514 24.0692 457.447 15.4308 463.315 9.37664C469.256 3.32242 477.723 0.295319 488.715 0.295319C499.706 0.295319 508.136 3.32242 514.003 9.37664C519.945 15.4308 522.916 24.0692 522.916 35.2916V280.708C522.916 291.931 519.945 300.569 514.003 306.623ZM482.142 280.708C482.142 286.91 484.333 290.011 488.715 290.011C493.097 290.011 495.287 286.91 495.287 280.708V35.2916C495.287 29.0897 493.097 25.9888 488.715 25.9888C484.333 25.9888 482.142 29.0897 482.142 35.2916V280.708ZM604.292 282.037C604.292 290.159 604.663 296.287 605.406 300.421C606.149 304.482 607.56 308.691 609.639 313.047H580.229C578.744 310.167 577.778 306.476 577.332 301.972C576.887 297.394 576.664 290.75 576.664 282.037V179.485C576.664 176.606 576.07 174.575 574.882 173.394C573.768 172.139 571.985 171.511 569.534 171.511H563.518V313.047H535.89V2.95325H569.98C582.383 2.95325 591.184 5.72194 596.382 11.2593C601.656 16.7229 604.292 25.472 604.292 37.5065V133.303C604.292 140.539 603.252 146.113 601.173 150.026C599.093 153.939 595.565 156.634 590.589 158.111C595.565 159.44 599.093 162.024 601.173 165.863C603.252 169.629 604.292 175.018 604.292 182.032V282.037ZM576.664 136.958V36.6206C576.664 33.7411 576.07 31.7107 574.882 30.5294C573.768 29.2743 571.985 28.6467 569.534 28.6467H563.518V144.932H569.534C571.985 144.932 573.768 144.341 574.882 143.16C576.07 141.905 576.664 139.837 576.664 136.958ZM726.575 282.037C726.575 290.159 726.947 296.287 727.689 300.421C728.432 304.482 729.843 308.691 731.923 313.047H702.512C701.027 310.167 700.061 306.476 699.616 301.972C699.17 297.394 698.947 290.75 698.947 282.037V179.485C698.947 176.606 698.353 174.575 697.165 173.394C696.051 172.139 694.268 171.511 691.817 171.511H685.802V313.047H658.174V2.95325H692.263C704.666 2.95325 713.467 5.72194 718.666 11.2593C723.939 16.7229 726.575 25.472 726.575 37.5065V133.303C726.575 140.539 725.536 146.113 723.456 150.026C721.376 153.939 717.849 156.634 712.873 158.111C717.849 159.44 721.376 162.024 723.456 165.863C725.536 169.629 726.575 175.018 726.575 182.032V282.037ZM698.947 136.958V36.6206C698.947 33.7411 698.353 31.7107 697.165 30.5294C696.051 29.2743 694.268 28.6467 691.817 28.6467H685.802V144.932H691.817C694.268 144.932 696.051 144.341 697.165 143.16C698.353 141.905 698.947 139.837 698.947 136.958ZM799.038 306.623C793.171 312.678 784.741 315.705 773.749 315.705C762.758 315.705 754.291 312.678 748.349 306.623C742.484 300.569 739.55 291.931 739.55 280.708V35.2916C739.55 24.0692 742.484 15.4308 748.349 9.37664C754.291 3.32242 762.758 0.295319 773.749 0.295319C784.741 0.295319 793.171 3.32242 799.038 9.37664C804.98 15.4308 807.95 24.0692 807.95 35.2916V280.708C807.95 291.931 804.98 300.569 799.038 306.623ZM767.177 280.708C767.177 286.91 769.368 290.011 773.749 290.011C778.131 290.011 780.322 286.91 780.322 280.708V35.2916C780.322 29.0897 778.131 25.9888 773.749 25.9888C769.368 25.9888 767.177 29.0897 767.177 35.2916V280.708ZM870.388 28.6467H848.553V129.649H865.487V157.114H848.553V287.353H870.388V313.047H820.925V2.95325H870.388V28.6467ZM928.266 28.6467H906.431V129.649H923.364V157.114H906.431V287.353H928.266V313.047H878.803V2.95325H928.266V28.6467ZM936.681 313.047V2.95325H968.097L988.372 178.378L996.727 262.435H996.95L990.377 95.5383L988.818 2.95325H1015.33V313.047H983.916L963.64 137.622L955.174 51.6822H954.951L961.635 226.664L963.195 313.047H936.681Z" fill="#111111"/>
</g>
<defs>
<clipPath id="clip0_55_331">
<rect width="1016" height="316" fill="white"/>
</clipPath>
</defs>
</svg>
