<svg width="1029" height="322" viewBox="0 0 1029 322" fill="none" xmlns="http://www.w3.org/2000/svg">
<g clip-path="url(#clip0_55_331)">
<path d="M0.63916 318.991V3.00932H43.2885L53.3303 156.486L55.0227 207.494H55.2484L56.9408 156.486L66.9826 3.00932H109.632V318.991H83.4556L84.3582 168.222L87.179 33.5918H86.9533L66.8698 318.991H43.4013L23.3178 33.5918H23.0921L25.9128 168.222L26.8155 318.991H0.63916ZM166.829 318.991L164.573 266.628H147.084L144.828 318.991H118.539L139.75 3.00932H174.05L196.165 318.991H166.829ZM148.213 239.544H163.445L159.157 138.43L155.659 37.0902H155.434L152.613 138.43L148.213 239.544ZM204.701 318.991V3.00932H236.519L257.053 181.764L265.516 267.418H265.741L259.084 97.3523L257.505 3.00932H284.358V318.991H252.54L232.005 140.236L223.43 52.6636H223.205L229.975 230.967L231.554 318.991H204.701ZM356.706 312.445C350.764 318.614 342.227 321.699 331.094 321.699C319.962 321.699 311.387 318.614 305.369 312.445C299.427 306.276 296.456 297.474 296.456 286.038V219.908H324.437V286.038C324.437 292.358 326.656 295.518 331.094 295.518C335.532 295.518 337.751 292.358 337.751 286.038V247.443C337.751 230.215 335.081 213.212 329.74 196.435L305.369 119.245C299.427 100.362 296.456 80.6505 296.456 60.1117V35.9617C296.456 24.5262 299.427 15.7238 305.369 9.55467C311.387 3.3855 319.962 0.300919 331.094 0.300919C342.227 0.300919 350.764 3.3855 356.706 9.55467C362.724 15.7238 365.733 24.5262 365.733 35.9617V86.293H337.751V35.9617C337.751 29.6421 335.532 26.4822 331.094 26.4822C326.656 26.4822 324.437 29.6421 324.437 35.9617V60.1117C324.437 76.1365 327.183 92.9888 332.674 110.669L356.819 187.858C362.761 206.742 365.733 226.604 365.733 247.443V286.038C365.733 297.474 362.724 306.276 356.706 312.445ZM438.162 312.445C432.22 318.614 423.682 321.699 412.55 321.699C401.417 321.699 392.842 318.614 386.825 312.445C380.883 306.276 377.911 297.474 377.911 286.038V35.9617C377.911 24.5262 380.883 15.7238 386.825 9.55467C392.842 3.3855 401.417 0.300919 412.55 0.300919C423.682 0.300919 432.22 3.3855 438.162 9.55467C444.18 15.7238 447.188 24.5262 447.188 35.9617V286.038C447.188 297.474 444.18 306.276 438.162 312.445ZM405.893 286.038C405.893 292.358 408.112 295.518 412.55 295.518C416.988 295.518 419.207 292.358 419.207 286.038V35.9617C419.207 29.6421 416.988 26.4822 412.55 26.4822C408.112 26.4822 405.893 29.6421 405.893 35.9617V286.038ZM520.58 312.445C514.638 318.614 506.1 321.699 494.968 321.699C483.835 321.699 475.26 318.614 469.243 312.445C463.3 306.276 460.329 297.474 460.329 286.038V35.9617C460.329 24.5262 463.3 15.7238 469.243 9.55467C475.26 3.3855 483.835 0.300919 494.968 0.300919C506.1 0.300919 514.638 3.3855 520.58 9.55467C526.597 15.7238 529.606 24.5262 529.606 35.9617V286.038C529.606 297.474 526.597 306.276 520.58 312.445ZM488.311 286.038C488.311 292.358 490.53 295.518 494.968 295.518C499.406 295.518 501.625 292.358 501.625 286.038V35.9617C501.625 29.6421 499.406 26.4822 494.968 26.4822C490.53 26.4822 488.311 29.6421 488.311 35.9617V286.038ZM612.024 287.393C612.024 295.668 612.4 301.913 613.152 306.126C613.904 310.264 615.334 314.552 617.44 318.991H587.653C586.148 316.057 585.171 312.295 584.719 307.706C584.268 303.041 584.042 296.27 584.042 287.393V182.893C584.042 179.959 583.441 177.89 582.237 176.686C581.109 175.407 579.304 174.768 576.821 174.768H570.729V318.991H542.747V3.00932H577.273C589.834 3.00932 598.748 5.83058 604.013 11.4731C609.354 17.0404 612.024 25.9556 612.024 38.2187V135.834C612.024 143.207 610.971 148.887 608.865 152.875C606.759 156.862 603.186 159.608 598.146 161.113C603.186 162.467 606.759 165.1 608.865 169.012C610.971 172.849 612.024 178.341 612.024 185.489V287.393ZM584.042 139.558V37.3159C584.042 34.3818 583.441 32.3128 582.237 31.1091C581.109 29.8301 579.304 29.1907 576.821 29.1907H570.729V147.684H576.821C579.304 147.684 581.109 147.082 582.237 145.878C583.441 144.599 584.042 142.493 584.042 139.558ZM735.872 287.393C735.872 295.668 736.248 301.913 737 306.126C737.752 310.264 739.181 314.552 741.288 318.991H711.501C709.996 316.057 709.018 312.295 708.567 307.706C708.116 303.041 707.89 296.27 707.89 287.393V182.893C707.89 179.959 707.288 177.89 706.085 176.686C704.957 175.407 703.151 174.768 700.669 174.768H694.576V318.991H666.595V3.00932H701.12C713.682 3.00932 722.596 5.83058 727.861 11.4731C733.201 17.0404 735.872 25.9556 735.872 38.2187V135.834C735.872 143.207 734.819 148.887 732.713 152.875C730.606 156.862 727.034 159.608 721.994 161.113C727.034 162.467 730.606 165.1 732.713 169.012C734.819 172.849 735.872 178.341 735.872 185.489V287.393ZM707.89 139.558V37.3159C707.89 34.3818 707.288 32.3128 706.085 31.1091C704.957 29.8301 703.151 29.1907 700.669 29.1907H694.576V147.684H700.669C703.151 147.684 704.957 147.082 706.085 145.878C707.288 144.599 707.89 142.493 707.89 139.558ZM809.262 312.445C803.319 318.614 794.782 321.699 783.65 321.699C772.517 321.699 763.942 318.614 757.925 312.445C751.984 306.276 749.013 297.474 749.013 286.038V35.9617C749.013 24.5262 751.984 15.7238 757.925 9.55467C763.942 3.3855 772.517 0.300919 783.65 0.300919C794.782 0.300919 803.319 3.3855 809.262 9.55467C815.279 15.7238 818.288 24.5262 818.288 35.9617V286.038C818.288 297.474 815.279 306.276 809.262 312.445ZM776.993 286.038C776.993 292.358 779.212 295.518 783.65 295.518C788.087 295.518 790.307 292.358 790.307 286.038V35.9617C790.307 29.6421 788.087 26.4822 783.65 26.4822C779.212 26.4822 776.993 29.6421 776.993 35.9617V286.038ZM881.525 29.1907H859.41V132.11H876.56V160.097H859.41V292.809H881.525V318.991H831.429V3.00932H881.525V29.1907ZM940.143 29.1907H918.029V132.11H935.179V160.097H918.029V292.809H940.143V318.991H890.047V3.00932H940.143V29.1907ZM948.666 318.991V3.00932H980.483L1001.02 181.764L1009.48 267.418H1009.71L1003.05 97.3523L1001.47 3.00932H1028.32V318.991H996.505L975.97 140.236L967.395 52.6636H967.17L973.939 230.967L975.519 318.991H948.666Z" fill="#D9D9D9"/>
<path d="M0.63916 318.991V3.00932H43.2885L53.3303 156.486L55.0227 207.494H55.2484L56.9408 156.486L66.9826 3.00932H109.632V318.991H83.4556L84.3582 168.222L87.179 33.5918H86.9533L66.8698 318.991H43.4013L23.3178 33.5918H23.0921L25.9128 168.222L26.8155 318.991H0.63916ZM166.829 318.991L164.573 266.628H147.084L144.828 318.991H118.539L139.75 3.00932H174.05L196.165 318.991H166.829ZM148.213 239.544H163.445L159.157 138.43L155.659 37.0902H155.434L152.613 138.43L148.213 239.544ZM204.701 318.991V3.00932H236.519L257.053 181.764L265.516 267.418H265.741L259.084 97.3523L257.505 3.00932H284.358V318.991H252.54L232.005 140.236L223.43 52.6636H223.205L229.975 230.967L231.554 318.991H204.701ZM356.706 312.445C350.764 318.614 342.227 321.699 331.094 321.699C319.962 321.699 311.387 318.614 305.369 312.445C299.427 306.276 296.456 297.474 296.456 286.038V219.908H324.437V286.038C324.437 292.358 326.656 295.518 331.094 295.518C335.532 295.518 337.751 292.358 337.751 286.038V247.443C337.751 230.215 335.081 213.212 329.74 196.435L305.369 119.245C299.427 100.362 296.456 80.6505 296.456 60.1117V35.9617C296.456 24.5262 299.427 15.7238 305.369 9.55467C311.387 3.3855 319.962 0.300919 331.094 0.300919C342.227 0.300919 350.764 3.3855 356.706 9.55467C362.724 15.7238 365.733 24.5262 365.733 35.9617V86.293H337.751V35.9617C337.751 29.6421 335.532 26.4822 331.094 26.4822C326.656 26.4822 324.437 29.6421 324.437 35.9617V60.1117C324.437 76.1365 327.183 92.9888 332.674 110.669L356.819 187.858C362.761 206.742 365.733 226.604 365.733 247.443V286.038C365.733 297.474 362.724 306.276 356.706 312.445ZM438.162 312.445C432.22 318.614 423.682 321.699 412.55 321.699C401.417 321.699 392.842 318.614 386.825 312.445C380.883 306.276 377.911 297.474 377.911 286.038V35.9617C377.911 24.5262 380.883 15.7238 386.825 9.55467C392.842 3.3855 401.417 0.300919 412.55 0.300919C423.682 0.300919 432.22 3.3855 438.162 9.55467C444.18 15.7238 447.188 24.5262 447.188 35.9617V286.038C447.188 297.474 444.18 306.276 438.162 312.445ZM405.893 286.038C405.893 292.358 408.112 295.518 412.55 295.518C416.988 295.518 419.207 292.358 419.207 286.038V35.9617C419.207 29.6421 416.988 26.4822 412.55 26.4822C408.112 26.4822 405.893 29.6421 405.893 35.9617V286.038ZM520.58 312.445C514.638 318.614 506.1 321.699 494.968 321.699C483.835 321.699 475.26 318.614 469.243 312.445C463.3 306.276 460.329 297.474 460.329 286.038V35.9617C460.329 24.5262 463.3 15.7238 469.243 9.55467C475.26 3.3855 483.835 0.300919 494.968 0.300919C506.1 0.300919 514.638 3.3855 520.58 9.55467C526.597 15.7238 529.606 24.5262 529.606 35.9617V286.038C529.606 297.474 526.597 306.276 520.58 312.445ZM488.311 286.038C488.311 292.358 490.53 295.518 494.968 295.518C499.406 295.518 501.625 292.358 501.625 286.038V35.9617C501.625 29.6421 499.406 26.4822 494.968 26.4822C490.53 26.4822 488.311 29.6421 488.311 35.9617V286.038ZM612.024 287.393C612.024 295.668 612.4 301.913 613.152 306.126C613.904 310.264 615.334 314.552 617.44 318.991H587.653C586.148 316.057 585.171 312.295 584.719 307.706C584.268 303.041 584.042 296.27 584.042 287.393V182.893C584.042 179.959 583.441 177.89 582.237 176.686C581.109 175.407 579.304 174.768 576.821 174.768H570.729V318.991H542.747V3.00932H577.273C589.834 3.00932 598.748 5.83058 604.013 11.4731C609.354 17.0404 612.024 25.9556 612.024 38.2187V135.834C612.024 143.207 610.971 148.887 608.865 152.875C606.759 156.862 603.186 159.608 598.146 161.113C603.186 162.467 606.759 165.1 608.865 169.012C610.971 172.849 612.024 178.341 612.024 185.489V287.393ZM584.042 139.558V37.3159C584.042 34.3818 583.441 32.3128 582.237 31.1091C581.109 29.8301 579.304 29.1907 576.821 29.1907H570.729V147.684H576.821C579.304 147.684 581.109 147.082 582.237 145.878C583.441 144.599 584.042 142.493 584.042 139.558ZM735.872 287.393C735.872 295.668 736.248 301.913 737 306.126C737.752 310.264 739.181 314.552 741.288 318.991H711.501C709.996 316.057 709.018 312.295 708.567 307.706C708.116 303.041 707.89 296.27 707.89 287.393V182.893C707.89 179.959 707.288 177.89 706.085 176.686C704.957 175.407 703.151 174.768 700.669 174.768H694.576V318.991H666.595V3.00932H701.12C713.682 3.00932 722.596 5.83058 727.861 11.4731C733.201 17.0404 735.872 25.9556 735.872 38.2187V135.834C735.872 143.207 734.819 148.887 732.713 152.875C730.606 156.862 727.034 159.608 721.994 161.113C727.034 162.467 730.606 165.1 732.713 169.012C734.819 172.849 735.872 178.341 735.872 185.489V287.393ZM707.89 139.558V37.3159C707.89 34.3818 707.288 32.3128 706.085 31.1091C704.957 29.8301 703.151 29.1907 700.669 29.1907H694.576V147.684H700.669C703.151 147.684 704.957 147.082 706.085 145.878C707.288 144.599 707.89 142.493 707.89 139.558ZM809.262 312.445C803.319 318.614 794.782 321.699 783.65 321.699C772.517 321.699 763.942 318.614 757.925 312.445C751.984 306.276 749.013 297.474 749.013 286.038V35.9617C749.013 24.5262 751.984 15.7238 757.925 9.55467C763.942 3.3855 772.517 0.300919 783.65 0.300919C794.782 0.300919 803.319 3.3855 809.262 9.55467C815.279 15.7238 818.288 24.5262 818.288 35.9617V286.038C818.288 297.474 815.279 306.276 809.262 312.445ZM776.993 286.038C776.993 292.358 779.212 295.518 783.65 295.518C788.087 295.518 790.307 292.358 790.307 286.038V35.9617C790.307 29.6421 788.087 26.4822 783.65 26.4822C779.212 26.4822 776.993 29.6421 776.993 35.9617V286.038ZM881.525 29.1907H859.41V132.11H876.56V160.097H859.41V292.809H881.525V318.991H831.429V3.00932H881.525V29.1907ZM940.143 29.1907H918.029V132.11H935.179V160.097H918.029V292.809H940.143V318.991H890.047V3.00932H940.143V29.1907ZM948.666 318.991V3.00932H980.483L1001.02 181.764L1009.48 267.418H1009.71L1003.05 97.3523L1001.47 3.00932H1028.32V318.991H996.505L975.97 140.236L967.395 52.6636H967.17L973.939 230.967L975.519 318.991H948.666Z" fill="#111111"/>
</g>
<defs>
<clipPath id="clip0_55_331">
<rect width="1029" height="322" fill="white"/>
</clipPath>
</defs>
</svg>
