<svg width="126" height="30" viewBox="0 0 126 30" fill="none" xmlns="http://www.w3.org/2000/svg">
<g clip-path="url(#clip0_55_314)">
<mask id="mask0_55_314" style="mask-type:luminance" maskUnits="userSpaceOnUse" x="0" y="0" width="126" height="30">
<path d="M126 0H0V30H126V0Z" fill="white"/>
</mask>
<g mask="url(#mask0_55_314)">
<path d="M2.80008 9.6C2.30675 9.6 1.89341 9.44667 1.56008 9.14C1.24008 8.82 1.08008 8.42667 1.08008 7.96C1.08008 7.49333 1.24008 7.10667 1.56008 6.8C1.89341 6.48 2.30675 6.32 2.80008 6.32C3.29341 6.32 3.70008 6.48 4.02008 6.8C4.35341 7.10667 4.52008 7.49333 4.52008 7.96C4.52008 8.42667 4.35341 8.82 4.02008 9.14C3.70008 9.44667 3.29341 9.6 2.80008 9.6ZM4.18008 10.92V22H1.38008V10.92H4.18008ZM20.7065 10.76C22.0665 10.76 23.1598 11.18 23.9865 12.02C24.8265 12.8467 25.2465 14.0067 25.2465 15.5V22H22.4465V15.88C22.4465 15.0133 22.2265 14.3533 21.7865 13.9C21.3465 13.4333 20.7465 13.2 19.9865 13.2C19.2265 13.2 18.6198 13.4333 18.1665 13.9C17.7265 14.3533 17.5065 15.0133 17.5065 15.88V22H14.7065V15.88C14.7065 15.0133 14.4865 14.3533 14.0465 13.9C13.6065 13.4333 13.0065 13.2 12.2465 13.2C11.4732 13.2 10.8598 13.4333 10.4065 13.9C9.96649 14.3533 9.74649 15.0133 9.74649 15.88V22H6.94649V10.92H9.74649V12.26C10.1065 11.7933 10.5665 11.4267 11.1265 11.16C11.6998 10.8933 12.3265 10.76 13.0065 10.76C13.8732 10.76 14.6465 10.9467 15.3265 11.32C16.0065 11.68 16.5332 12.2 16.9065 12.88C17.2665 12.24 17.7865 11.7267 18.4665 11.34C19.1598 10.9533 19.9065 10.76 20.7065 10.76Z" fill="black"/>
<path d="M29.8835 12.82C30.2035 12.1933 30.6569 11.7067 31.2435 11.36C31.8435 11.0133 32.5702 10.84 33.4235 10.84V12.72H32.9435C30.9035 12.72 29.8835 13.8267 29.8835 16.04V22H28.0635V11.04H29.8835V12.82ZM40.3045 22.18C39.2778 22.18 38.3445 21.9467 37.5045 21.48C36.6778 21.0133 36.0245 20.3533 35.5445 19.5C35.0778 18.6333 34.8445 17.6333 34.8445 16.5C34.8445 15.38 35.0845 14.3933 35.5645 13.54C36.0578 12.6733 36.7245 12.0133 37.5645 11.56C38.4045 11.0933 39.3445 10.86 40.3845 10.86C41.4245 10.86 42.3645 11.0933 43.2045 11.56C44.0445 12.0133 44.7045 12.6667 45.1845 13.52C45.6778 14.3733 45.9245 15.3667 45.9245 16.5C45.9245 17.6333 45.6711 18.6333 45.1645 19.5C44.6711 20.3533 43.9978 21.0133 43.1445 21.48C42.2911 21.9467 41.3445 22.18 40.3045 22.18ZM40.3045 20.58C40.9578 20.58 41.5711 20.4267 42.1445 20.12C42.7178 19.8133 43.1778 19.3533 43.5245 18.74C43.8845 18.1267 44.0645 17.38 44.0645 16.5C44.0645 15.62 43.8911 14.8733 43.5445 14.26C43.1978 13.6467 42.7445 13.1933 42.1845 12.9C41.6245 12.5933 41.0178 12.44 40.3645 12.44C39.6978 12.44 39.0845 12.5933 38.5245 12.9C37.9778 13.1933 37.5378 13.6467 37.2045 14.26C36.8711 14.8733 36.7045 15.62 36.7045 16.5C36.7045 17.3933 36.8645 18.1467 37.1845 18.76C37.5178 19.3733 37.9578 19.8333 38.5045 20.14C39.0511 20.4333 39.6511 20.58 40.3045 20.58ZM58.3174 16.1C58.3174 16.4467 58.2974 16.8133 58.2574 17.2H49.4974C49.5641 18.28 49.9308 19.1267 50.5974 19.74C51.2774 20.34 52.0974 20.64 53.0574 20.64C53.8441 20.64 54.4974 20.46 55.0174 20.1C55.5508 19.7267 55.9241 19.2333 56.1374 18.62H58.0974C57.8041 19.6733 57.2174 20.5333 56.3374 21.2C55.4574 21.8533 54.3641 22.18 53.0574 22.18C52.0174 22.18 51.0841 21.9467 50.2574 21.48C49.4441 21.0133 48.8041 20.3533 48.3374 19.5C47.8708 18.6333 47.6374 17.6333 47.6374 16.5C47.6374 15.3667 47.8641 14.3733 48.3174 13.52C48.7708 12.6667 49.4041 12.0133 50.2174 11.56C51.0441 11.0933 51.9908 10.86 53.0574 10.86C54.0974 10.86 55.0174 11.0867 55.8174 11.54C56.6174 11.9933 57.2308 12.62 57.6574 13.42C58.0974 14.2067 58.3174 15.1 58.3174 16.1ZM56.4374 15.72C56.4374 15.0267 56.2841 14.4333 55.9774 13.94C55.6708 13.4333 55.2508 13.0533 54.7174 12.8C54.1974 12.5333 53.6174 12.4 52.9774 12.4C52.0574 12.4 51.2708 12.6933 50.6174 13.28C49.9774 13.8667 49.6108 14.68 49.5174 15.72H56.4374ZM70.7198 16.1C70.7198 16.4467 70.6998 16.8133 70.6598 17.2H61.8998C61.9665 18.28 62.3331 19.1267 62.9998 19.74C63.6798 20.34 64.4998 20.64 65.4598 20.64C66.2465 20.64 66.8998 20.46 67.4198 20.1C67.9531 19.7267 68.3265 19.2333 68.5398 18.62H70.4998C70.2065 19.6733 69.6198 20.5333 68.7398 21.2C67.8598 21.8533 66.7665 22.18 65.4598 22.18C64.4198 22.18 63.4865 21.9467 62.6598 21.48C61.8465 21.0133 61.2065 20.3533 60.7398 19.5C60.2731 18.6333 60.0398 17.6333 60.0398 16.5C60.0398 15.3667 60.2665 14.3733 60.7198 13.52C61.1731 12.6667 61.8065 12.0133 62.6198 11.56C63.4465 11.0933 64.3931 10.86 65.4598 10.86C66.4998 10.86 67.4198 11.0867 68.2198 11.54C69.0198 11.9933 69.6331 12.62 70.0598 13.42C70.4998 14.2067 70.7198 15.1 70.7198 16.1ZM68.8398 15.72C68.8398 15.0267 68.6865 14.4333 68.3798 13.94C68.0731 13.4333 67.6531 13.0533 67.1198 12.8C66.5998 12.5333 66.0198 12.4 65.3798 12.4C64.4598 12.4 63.6731 12.6933 63.0198 13.28C62.3798 13.8667 62.0131 14.68 61.9198 15.72H68.8398ZM78.4621 10.84C79.7955 10.84 80.8755 11.2467 81.7021 12.06C82.5288 12.86 82.9421 14.02 82.9421 15.54V22H81.1421V15.8C81.1421 14.7067 80.8688 13.8733 80.3221 13.3C79.7755 12.7133 79.0288 12.42 78.0821 12.42C77.1221 12.42 76.3555 12.72 75.7821 13.32C75.2221 13.92 74.9421 14.7933 74.9421 15.94V22H73.1221V11.04H74.9421V12.6C75.3021 12.04 75.7888 11.6067 76.4021 11.3C77.0288 10.9933 77.7155 10.84 78.4621 10.84ZM86.4951 22.12C86.1484 22.12 85.8551 22 85.6151 21.76C85.3751 21.52 85.2551 21.2267 85.2551 20.88C85.2551 20.5333 85.3751 20.24 85.6151 20C85.8551 19.76 86.1484 19.64 86.4951 19.64C86.8284 19.64 87.1084 19.76 87.3351 20C87.5751 20.24 87.6951 20.5333 87.6951 20.88C87.6951 21.2267 87.5751 21.52 87.3351 21.76C87.1084 22 86.8284 22.12 86.4951 22.12ZM89.6343 16.56C89.8343 15.44 90.2277 14.46 90.8143 13.62C91.4143 12.78 92.1543 12.1333 93.0343 11.68C93.9143 11.2267 94.861 11 95.8743 11C96.981 11 97.8877 11.28 98.5943 11.84C99.3143 12.3867 99.761 13.1 99.9343 13.98L101.134 7.2H102.014L99.3943 22H98.5143L99.0343 19.12C98.5677 20.0133 97.881 20.7467 96.9743 21.32C96.0677 21.88 95.041 22.16 93.8943 22.16C92.561 22.16 91.4943 21.7733 90.6943 21C89.9077 20.2133 89.5143 19.1533 89.5143 17.82C89.5143 17.42 89.5543 17 89.6343 16.56ZM99.4743 16.56C99.541 16.16 99.5743 15.8067 99.5743 15.5C99.5743 14.3667 99.2343 13.4667 98.5543 12.8C97.8743 12.12 96.9743 11.78 95.8543 11.78C94.9743 11.78 94.161 11.9733 93.4143 12.36C92.681 12.7333 92.061 13.28 91.5543 14C91.061 14.72 90.7277 15.5733 90.5543 16.56C90.4877 17 90.4543 17.3733 90.4543 17.68C90.4543 18.84 90.781 19.7467 91.4343 20.4C92.101 21.04 93.0077 21.36 94.1543 21.36C94.9943 21.36 95.7877 21.1667 96.5343 20.78C97.2943 20.38 97.9277 19.82 98.4343 19.1C98.9543 18.3667 99.301 17.52 99.4743 16.56ZM109.351 11C110.271 11 111.051 11.18 111.691 11.54C112.345 11.8867 112.831 12.36 113.151 12.96C113.485 13.5467 113.651 14.2067 113.651 14.94C113.651 15.26 113.625 15.5533 113.571 15.82C113.491 16.3 113.411 16.66 113.331 16.9H103.951C103.898 17.3267 103.871 17.6333 103.871 17.82C103.871 18.9667 104.218 19.8467 104.911 20.46C105.605 21.0733 106.478 21.38 107.531 21.38C108.585 21.38 109.518 21.12 110.331 20.6C111.158 20.0667 111.745 19.3467 112.091 18.44H113.031C112.605 19.5467 111.891 20.4467 110.891 21.14C109.905 21.82 108.738 22.16 107.391 22.16C106.058 22.16 104.985 21.7733 104.171 21C103.371 20.2267 102.971 19.1733 102.971 17.84C102.971 17.4267 103.011 17 103.091 16.56C103.291 15.4267 103.691 14.44 104.291 13.6C104.891 12.76 105.625 12.12 106.491 11.68C107.371 11.2267 108.325 11 109.351 11ZM112.611 16.2C112.705 15.8133 112.751 15.42 112.751 15.02C112.751 13.9667 112.411 13.16 111.731 12.6C111.065 12.04 110.218 11.76 109.191 11.76C108.431 11.76 107.698 11.9267 106.991 12.26C106.285 12.5933 105.671 13.0933 105.151 13.76C104.631 14.4267 104.271 15.24 104.071 16.2H112.611ZM119.071 20.94L124.771 11.14H125.751L119.331 22H118.391L115.831 11.14H116.791L119.071 20.94Z" fill="#1D1D1D"/>
</g>
</g>
<defs>
<clipPath id="clip0_55_314">
<rect width="126" height="30" fill="white"/>
</clipPath>
</defs>
</svg>
