<svg xmlns="http://www.w3.org/2000/svg" width="91" height="91" viewBox="0 0 91 91" fill="none">
  <g clip-path="url(#clip0_55_338)">
    <path d="M49.1 6.3C48.6 6.3 48.2 6.1 47.8 6C47.4 5.8 47.1 5.6 46.8 5.4L47.1 4.9C47.3 5.1 47.5 5.2 47.7 5.3L48.3 5.6C48.5 5.7 48.8 5.7 49.1 5.8C49.6 5.9 50 5.8 50.3 5.6C50.6 5.4 50.7 5.2 50.7 4.9C50.7 4.6 50.7 4.4 50.5 4.2C50.3 4 50 3.9 49.6 3.8L48.7 3.5C48.1 3.3 47.7 3.1 47.5 2.8C47.3 2.5 47.1 2.1 47.2 1.7C47.2 1.3 47.4 1 47.6 0.8C47.8 0.6 48.1 0.4 48.5 0.2C48.9 0 49.4 0 49.8 0C50.2 0 50.6 0.1 51 0.3C51.3 0.5 51.6 0.7 51.9 1L51.6 1.5C51.3 1.3 51 1 50.7 0.9L49.7 0.6C49.2 0.6 48.8 0.6 48.5 0.8C48.2 1 48 1.2 48 1.6C48 1.9 48 2.1 48.2 2.3C48.4 2.5 48.6 2.6 49 2.7L50 3.1C50.6 3.3 51 3.5 51.2 3.8C51.5 4.1 51.6 4.4 51.5 4.9C51.5 5.2 51.3 5.5 51.1 5.8C50.9 6 50.6 6.2 50.3 6.3H49.1ZM56.2 7.7C55.6 7.5 55.1 7.3 54.8 6.9C54.5 6.5 54.2 6.1 54.1 5.6C53.9857 5.00085 54.02 4.3828 54.2 3.8C54.4 3.1 54.6 2.7 55 2.3C55.3 1.9 55.8 1.7 56.2 1.5C56.7 1.4 57.2 1.4 57.8 1.6C58.2 1.7 58.6 1.9 58.9 2.1C59.2 2.3 59.4 2.6 59.6 2.9L59.2 3.4C59 3.1 58.8 2.8 58.5 2.7C58.3 2.5 58 2.4 57.6 2.3C57 2 56.5 2.1 56 2.4C55.5 2.7 55.2 3.3 55 4C54.8 4.7 54.8 5.4 55 6C55.2 6.5 55.7 6.9 56.4 7.1C56.8 7.2 57.1 7.2 57.4 7.2C57.7 7.2 58 7.1 58.3 6.9L58.4 7.5C58.1006 7.68997 57.7546 7.79377 57.4 7.8C57.1 7.8 56.6 7.8 56.2 7.7ZM60.3 9L63 3.5L65.3 4.6C65.9 4.9 66.3 5.2 66.4 5.7C66.5 6.2 66.6 6.6 66.3 7.1C66.1 7.4 65.9 7.7 65.7 7.8C65.5 7.9 65.2 8 64.9 8C64.6 8 64.3 7.9 63.9 7.7H64.1L64.3 7.8C64.5 7.9 64.7 8.1 64.8 8.2C64.9 8.4 65 8.6 64.9 8.9L64.8 11.1L64 10.8L64.1 8.6C64.1 8.3 64.1 8.1 63.9 7.9C63.7 7.7 63.6 7.6 63.3 7.5L62.1 6.9L61 9.3L60.3 9ZM62.4 6.4L63.9 7.1C64.3 7.3 64.7 7.4 65 7.3C65.3 7.2 65.5 7 65.7 6.7C65.9 6.4 65.9 6 65.8 5.8C65.7 5.5 65.4 5.3 65 5.1L63.5 4.4L62.4 6.4ZM68.2 9.7C68.6 9.2 69 8.8 69.5 8.6C70 8.4 70.4 8.3 70.9 8.3C71.4 8.3 71.9 8.6 72.3 8.9C72.8 9.2 73.1 9.6 73.3 10.1C73.5 10.6 73.5 11 73.4 11.6C73.3 12.2 73.1 12.6 72.7 13.1C72.3 13.6 71.9 14 71.4 14.2C70.9 14.4 70.4 14.5 70 14.5C69.5 14.5 69 14.3 68.6 13.9C68.1 13.5 67.8 13.1 67.6 12.7C67.4 12.3 67.4 11.8 67.5 11.2C67.6062 10.65 67.8467 10.1347 68.2 9.7ZM68.8 10.1C68.3 10.7 68.1 11.3 68.1 11.9C68.1 12.5 68.4 13 68.9 13.4C69.4 13.8 70 13.9 70.5 13.8C71.1 13.7 71.6 13.3 72.1 12.6C72.6 12 72.8 11.4 72.8 10.8C72.8 10.2 72.5 9.8 72 9.4C71.5 9 70.9 8.9 70.4 9C69.8 9.1 69.3 9.5 68.8 10.1ZM72.6 17.2L77.1 13L77.6 13.5L73.6 17.3L75.7 19.6L75.2 20L72.6 17.2ZM76.5 21.6L81.6 18.1L82 18.7L77.4 21.8L79.2 24.4L78.7 24.8L76.5 21.6ZM81.7 31.1L86.9 29.2L86.1 27.2L86.7 27L88.5 31.7L87.9 31.9L87.1 29.9L81.9 31.8L81.7 31.1ZM86.1 34.5C86.7 34.4 87.3 34.4 87.8 34.5C88.3 34.6 88.7 34.9 89 35.3C89.3 35.7 89.5 36.1 89.7 36.7C89.8 37.3 89.8 37.8 89.6 38.2C89.4179 38.6762 89.1062 39.0919 88.7 39.4C88.3 39.7 87.8 39.9 87.1 40C86.5 40.1 85.9 40.1 85.4 40C84.9 39.9 84.5 39.6 84.1 39.2C83.8 38.8 83.5 38.4 83.4 37.8C83.3 37.2 83.3 36.7 83.5 36.2C83.7 35.7 84 35.4 84.4 35C84.9 34.9 85.5 34.6 86.1 34.5ZM86.2 35.3C85.4 35.4 84.8 35.7 84.5 36.2C84.1 36.6 84 37.2 84.1 37.8C84.2 38.4 84.5 38.9 85 39.2C85.5 39.5 86.1 39.5 86.9 39.4C87.7 39.3 88.3 39 88.6 38.5C89 38.1 89.1 37.5 89 36.9C88.9 36.2 88.6 35.8 88.1 35.5C87.6 35.2 87 35.1 86.2 35.3ZM84.3 46.5L90.4 47.1L90.2 49.1C90.1 49.8 90 50.3 89.7 50.8C89.4389 51.2337 89.0565 51.5813 88.6 51.8C88.1 52 87.6 52.1 86.9 52C86.2 51.9 85.7 51.8 85.3 51.5C84.8938 51.1919 84.5821 50.7762 84.4 50.3C84.2 49.8 84.1 49.2 84.2 48.5L84.3 46.5ZM84.9 47.3L84.8 48.6C84.7 49.4 84.9 50.1 85.2 50.5C85.6 50.9 86.2 51.2 87 51.3C87.8 51.4 88.5 51.2 88.9 50.9C89.3 50.5 89.6 49.9 89.7 49.1L89.8 47.8L84.9 47.3ZM83.2 54L89.2 55.5L89 56.2L83 54.7L83.2 54ZM81.6 59.1C81.8 58.6 82 58.2 82.3 57.9C82.6 57.6 82.9 57.3 83.2 57.1L83.6 57.6C83.4 57.7 83.2 57.9 83 58C82.8 58.1 82.7 58.3 82.5 58.5C82.3 58.7 82.2 58.9 82.1 59.2C81.9 59.7 81.9 60.1 82 60.4C82.043 60.5416 82.1202 60.6705 82.2249 60.7751C82.3295 60.8798 82.4584 60.957 82.6 61C82.9 61.1 83.1 61.1 83.3 61C83.5 60.9 83.7 60.6 84 60.3L84.5 59.5C84.8 59 85.1 58.7 85.5 58.5C85.8 58.3 86.2 58.3 86.6 58.5C86.9 58.6 87.2 58.8 87.4 59.1C87.603 59.3933 87.708 59.7434 87.7 60.1C87.7 60.5 87.6 60.9 87.5 61.3C87.3 61.7 87.1 62.1 86.9 62.3C86.6 62.6 86.4 62.8 86 63L85.6 62.6C85.9 62.4 86.2 62.2 86.4 62C86.6 61.8 86.8 61.5 86.9 61.1C87.1 60.7 87.1 60.3 87 59.9C86.9 59.6 86.7 59.3 86.4 59.2C86.1 59.1 85.9 59.1 85.7 59.2C85.5 59.3 85.3 59.5 85.1 59.9L84.6 60.7C84.3 61.2 83.9 61.6 83.6 61.7C83.3 61.9 82.9 61.9 82.5 61.7C82.2 61.6 81.9 61.4 81.8 61.1C81.6 60.8 81.5 60.5 81.5 60.2C81.3 60 81.4 59.6 81.6 59.1ZM78.4 65.6C78.7 65.1 79.1 64.7 79.5 64.5C79.9 64.3 80.4 64.2 80.9 64.2C81.4 64.2 82 64.4 82.5 64.8C83.0427 65.0623 83.4952 65.48 83.8 66C84.1 66.4 84.2 66.9 84.2 67.4C84.2 67.9 84 68.4 83.7 68.9C83.5156 69.2641 83.24 69.5742 82.9 69.8C82.6 70 82.3 70.2 81.9 70.3L81.5 69.8C81.9 69.7 82.1 69.5 82.4 69.4C82.6 69.2 82.9 69 83 68.7C83.4 68.1 83.5 67.5 83.3 67C83.1 66.5 82.7 66 82 65.6C81.3 65.2 80.7 65 80.1 65.1C79.5 65.2 79.1 65.5 78.7 66.1C78.5 66.4 78.4 66.7 78.4 67V68L78 67.7C77.9 67.4 77.9 67 78 66.6C78 66.3 78.1 65.9 78.4 65.6ZM78.6 70.9C79.1 71.3 79.4 71.8 79.6 72.3C79.8 72.8 79.9 73.3 79.8 73.7C79.7 74.2 79.5 74.7 79.1 75.1C78.7 75.5 78.3 75.8 77.8 76C77.5624 76.099 77.3075 76.15 77.05 76.15C76.7925 76.15 76.5377 76.099 76.3 76C75.8 75.9 75.3 75.6 74.8 75.1C74.3 74.7 74 74.2 73.8 73.7C73.6 73.2 73.5 72.7 73.6 72.2C73.7 71.7 73.9 71.3 74.3 70.8C74.7 70.4 75.1 70.1 75.6 69.9C76.1 69.8 76.6 69.8 77.1 69.9L78.6 70.9ZM78.1 71.5C77.5 71 76.9 70.7 76.4 70.7C75.8 70.7 75.3 70.9 74.9 71.4C74.5 71.9 74.3 72.4 74.4 73C74.5 73.6 74.8 74.1 75.4 74.6C76 75.1 76.6 75.4 77.1 75.4C77.6 75.4 78.2 75.2 78.6 74.7C79.1 74.2 79.2 73.7 79.1 73.1C79 72.6 78.7 72 78.1 71.5ZM69.3 75.8L75.2 79L74.6 79.5L69.3 76.5L69.5 76.3L71 82.2L70.4 82.7L68.8 76.2L69.3 75.8ZM65 78.8L67.9 84.2L64.4 86L64.1 85.5L67 84L66 82.1L63.3 83.5L63.1 83L65.8 81.6L64.8 79.6L62 81.1L61.7 80.6L65 78.8ZM59.5 81.5L61.4 87.4L59 88.2C58.4 88.4 57.9 88.4 57.4 88.2C57 88 56.7 87.7 56.5 87.1C56.4 86.8 56.4 86.4 56.4 86.1C56.5 85.8 56.6 85.6 56.9 85.3C57.1376 85.0399 57.4536 84.8644 57.8 84.8L57.7 85L57.5 85.1C57.3 85.2 57.1 85.2 56.8 85.1C56.6 85 56.4 84.9 56.2 84.7L54.8 83L55.6 82.8L57 84.5C57.2 84.7 57.4 84.8 57.6 84.8C57.8 84.8 58.1 84.8 58.3 84.7L59.6 84.3L58.8 81.8L59.5 81.5ZM59.8 84.8L58.2 85.3C57.8 85.4 57.5 85.6 57.3 85.9C57.1 86.2 57.1 86.5 57.2 86.8C57.3 87.2 57.5 87.4 57.8 87.5C58.1 87.6 58.5 87.6 58.9 87.5L60.5 87L59.8 84.8ZM49.5 85.9L49.6 86.8L48.7 86.9L48.6 86L49.5 85.9ZM40.5 83.8L41.8 84.1C42.2 84.2 42.5 84.5 42.8 84.8L42.5 85.3C42.3 85.1 42.1 85 41.9 84.9L41.3 84.6C41.1 84.5 40.8 84.5 40.5 84.4C40 84.3 39.6 84.4 39.3 84.6C39 84.8 38.9 85 38.8 85.3C38.8 85.6 38.8 85.8 39 86C39.2 86.2 39.4 86.3 39.9 86.5L40.8 86.8C41.3 87 41.7 87.2 42 87.5C42.2 87.8 42.3 88.2 42.3 88.6C42.3 89 42.1 89.3 41.9 89.5C41.7 89.7 41.4 89.9 41 90C40.6 90.1 40.2 90.1 39.8 90.1L38.6 89.8C38.3 89.6 38 89.4 37.7 89.1L38 88.6C38.2 88.9 38.5 89.1 38.8 89.2L39.8 89.5C40.3 89.6 40.7 89.5 41 89.3C41.3 89.1 41.5 88.9 41.5 88.5C41.5 88.2 41.5 88 41.3 87.8C41.1 87.6 40.9 87.5 40.5 87.3L39.6 87C39 86.8 38.6 86.6 38.4 86.3C38.2 86 38.1 85.7 38.1 85.2C38.1 84.9 38.3 84.6 38.5 84.3C38.7 84.1 39 83.9 39.3 83.8C39.7 83.8 40.1 83.7 40.5 83.8ZM33.5 82.3C34.1 82.5 34.6 82.8 34.9 83.1C35.2 83.5 35.5 83.9 35.5 84.4C35.5 84.9 35.5 85.5 35.3 86.1C35.1158 86.6398 34.8456 87.1463 34.5 87.6C34.1 88 33.7 88.2 33.2 88.4C32.7 88.5 32.2 88.5 31.6 88.3C31.2 88.2 30.8 88 30.5 87.8C30.2 87.6 30 87.3 29.8 87L30.2 86.5C30.4 86.8 30.6 87.1 30.8 87.3C31 87.5 31.3 87.6 31.7 87.7C32.4 87.9 33 87.8 33.4 87.5C33.9 87.2 34.2 86.7 34.5 85.9C34.8 85.1 34.7 84.5 34.5 84C34.3 83.5 33.8 83.1 33.1 82.9C32.7 82.8 32.4 82.8 32.1 82.8C31.8 82.8 31.5 82.9 31.1 83.1L31 82.5C31.2994 82.31 31.6454 82.2062 32 82.2C32.7 82.1 33.1 82.2 33.5 82.3ZM29.4 80.9L26.6 86.4L24.4 85.3C23.8 85 23.4 84.6 23.3 84.2C23.1 83.8 23.2 83.3 23.4 82.8C23.6 82.5 23.8 82.2 24 82.1C24.2 82 24.5 81.9 24.9 81.9C25.2 81.9 25.5 82 25.9 82.2H25.7L25.5 82.1C25.3 82 25.1 81.8 25 81.7C24.9 81.5 24.8 81.3 24.9 81L25.1 78.8L25.8 79.2L25.6 81.4C25.6 81.7 25.6 81.9 25.8 82.1C25.9 82.3 26.1 82.4 26.4 82.5L27.6 83.1L28.8 80.7L29.4 80.9ZM27.3 83.4L25.8 82.6C25.4 82.4 25 82.3 24.7 82.4C24.4 82.5 24.2 82.7 24 83C23.8 83.3 23.8 83.6 23.9 83.9C24 84.2 24.3 84.4 24.7 84.6L26.2 85.4L27.3 83.4ZM21.5 80.1C21.1 80.6 20.7 81 20.2 81.2C19.7 81.4 19.3 81.5 18.8 81.5C18.3 81.4 17.8 81.2 17.4 80.9C16.9 80.5 16.6 80.1 16.5 79.7C16.3 79.2 16.3 78.7 16.4 78.2C16.5 77.7 16.8 77.2 17.2 76.7C17.6 76.2 18 75.8 18.5 75.6C19 75.4 19.5 75.3 19.9 75.3C20.4 75.4 20.9 75.6 21.3 75.9C21.8 76.3 22.1 76.7 22.3 77.1C22.5 77.6 22.5 78 22.4 78.6C22.2 79 21.9 79.6 21.5 80.1ZM20.9 79.6C21.4 79 21.6 78.4 21.6 77.8C21.6 77.2 21.3 76.7 20.8 76.3C20.3 75.9 19.7 75.8 19.2 75.9C18.6 76 18.1 76.4 17.6 77C17.1 77.6 16.9 78.2 16.9 78.8C16.9 79.4 17.2 79.9 17.7 80.3C18.2 80.7 18.8 80.9 19.3 80.7C19.8 80.5 20.4 80.2 20.9 79.6ZM17.3 72.4L12.7 76.5L12.2 76L16.3 72.3L14.3 70L14.8 69.6L17.3 72.4ZM13.5 68L8.4 71.4L8 70.8L12.6 67.7L10.9 65.1L11.4 64.8L13.5 68ZM8.5 58.4L3.3 60.2L4 62.3L3.4 62.5L1.7 57.7L2.3 57.5L3 59.5L8.2 57.7L8.5 58.4ZM4.1 54.9C3.5 55 2.9 55 2.4 54.9C1.9 54.8 1.5 54.5 1.2 54.1C0.9 53.7 0.7 53.2 0.6 52.7C0.5 52.1 0.5 51.6 0.7 51.2C0.9 50.7 1.2 50.4 1.6 50.1C2 49.8 2.6 49.6 3.2 49.5C3.8 49.4 4.4 49.4 4.9 49.6C5.4 49.8 5.8 50 6.1 50.4C6.4 50.8 6.6 51.2 6.7 51.8C6.8 52.4 6.8 52.9 6.6 53.4C6.4 53.9 6.1 54 5.7 54.3C5.3 54.6 4.7 54.8 4.1 54.9ZM4 54.2C4.8 54.1 5.4 53.8 5.7 53.4C6.1 53 6.2 52.4 6.1 51.8C6 51.2 5.7 50.7 5.2 50.4C4.7 50.1 4.1 50 3.3 50.2C2.5 50.3 1.9 50.6 1.6 51C1.2 51.4 1.1 52 1.2 52.6C1.3 53.3 1.6 53.7 2.1 54C2.6 54.2 3.2 54.3 4 54.2ZM6.1 43L0 42.3L0.2 40.3C0.277036 39.6972 0.481572 39.1176 0.8 38.6C1.1 38.1 1.5 37.8 2 37.7C2.5 37.5 3.1 37.5 3.7 37.5C4.4 37.6 4.9 37.8 5.3 38.1C5.70616 38.4081 6.01793 38.8238 6.2 39.3C6.4 39.8 6.4 40.4 6.4 41.1L6.1 43ZM5.6 42.2L5.7 40.9C5.8 40.1 5.7 39.4 5.3 39C4.9 38.5 4.4 38.3 3.5 38.2C2.7 38.1 2 38.2 1.6 38.6C1.1 39 0.9 39.6 0.8 40.4L0.7 41.7L5.6 42.2ZM7.3 35.5L1.3 33.9L1.5 33.2L7.5 34.8L7.3 35.5Z" fill="white"/>
    <path d="M9.10004 30.3C8.90004 30.8 8.70004 31.1 8.40004 31.5C8.10004 31.8 7.80004 32.1 7.50004 32.2L7.10004 31.7C7.30004 31.6 7.50004 31.4 7.70004 31.3C7.80004 31.2 8.00004 31 8.10004 30.8C8.20004 30.6 8.40004 30.4 8.50004 30.1C8.70004 29.6 8.80004 29.2 8.70004 28.9C8.65708 28.7584 8.57984 28.6295 8.47519 28.5249C8.37053 28.4202 8.24168 28.343 8.10004 28.3C7.80004 28.2 7.60004 28.2 7.40004 28.3C7.20004 28.4 7.00004 28.6 6.80004 29L6.30004 29.8C6.00004 30.3 5.60004 30.6 5.30004 30.8C5.00004 31 4.60004 31 4.20004 30.8C3.90004 30.7 3.60004 30.5 3.40004 30.2C3.197 29.9067 3.09199 29.5567 3.10004 29.2C3.10004 28.8 3.20004 28.4 3.30004 28C3.50004 27.6 3.70004 27.3 3.90004 27C4.10004 26.7 4.50004 26.5 4.80004 26.4L5.20004 26.8C4.90004 27 4.60004 27.2 4.40004 27.4C4.20004 27.6 4.00004 27.9 3.90004 28.3C3.70004 28.7 3.70004 29.1 3.80004 29.5C3.90004 29.8 4.10004 30.1 4.40004 30.2C4.70004 30.3 4.90004 30.3 5.10004 30.2C5.30004 30.1 5.50004 29.9 5.80004 29.5L6.30004 28.7C6.60004 28.2 7.00004 27.9 7.30004 27.7C7.60004 27.5 8.00004 27.5 8.40004 27.7C8.70004 27.8 9.00004 28 9.10004 28.3C9.30308 28.5933 9.40809 28.9434 9.40004 29.3C9.40004 29.5 9.30004 29.9 9.10004 30.3ZM12.4 24C12.1 24.5 11.7 24.9 11.2 25.1C10.7 25.3 10.3 25.4 9.70004 25.4C9.20004 25.3 8.60004 25.1 8.10004 24.8C7.50004 24.5 7.10004 24.1 6.90004 23.6C6.60004 23.2 6.50004 22.7 6.50004 22.2C6.50004 21.7 6.70004 21.2 7.00004 20.7C7.1844 20.3359 7.46004 20.0258 7.80004 19.8C8.10004 19.6 8.40004 19.4 8.80004 19.3L9.10004 19.8C8.70004 19.9 8.40004 20 8.20004 20.2C8.00004 20.5 7.80004 20.7 7.60004 21C7.20004 21.6 7.10004 22.2 7.30004 22.7C7.50004 23.2 7.90004 23.7 8.60004 24.1C9.30004 24.5 9.90004 24.7 10.5 24.6C11.1 24.5 11.5 24.2 11.9 23.6C12.1 23.3 12.2 23 12.3 22.7C12.4 22.4 12.3 22.1 12.3 21.7L12.9 21.8C13 22.2 13 22.5 12.9 22.9C12.8 23.3 12.6 23.7 12.4 24ZM12.3 18.6C11.8 18.2 11.5 17.7 11.3 17.2C11.1 16.7 11.1 16.2 11.2 15.7C11.3 15.2 11.5 14.8 12 14.3C12.4 13.9 12.8 13.6 13.3 13.5C13.8 13.4 14.3 13.4 14.8 13.5C15.3 13.6 15.8 13.9 16.3 14.4C16.8 14.8 17.1 15.3 17.3 15.8C17.5 16.3 17.5 16.8 17.4 17.3C17.3 17.8 17.1 18.2 16.7 18.7C16.3 19.1 15.9 19.4 15.4 19.6C14.9 19.8 14.4 19.7 13.9 19.6C13.2 19.3 12.8 19.1 12.3 18.6ZM12.8 18.1C13.4 18.6 14 18.9 14.5 19C15.1 19 15.6 18.8 16 18.3C16.4 17.8 16.6 17.3 16.5 16.7C16.4 16.1 16.1 15.6 15.5 15C14.9 14.5 14.3 14.2 13.8 14.1C13.3 14 12.7 14.3 12.3 14.8C11.8 15.3 11.7 15.8 11.7 16.4C11.9 17 12.2 17.5 12.8 18.1ZM21.6 13.9L15.8 10.6L16.4 10.1L21.6 13.2L21.4 13.4L20 7.40002L20.6 7.00002L22.1 13.6L21.6 13.9ZM26 11L23.2 5.50002L26.7 3.70002L27 4.30002L24.1 5.80002L25.1 7.70002L27.8 6.30002L28 6.80002L25.3 8.20002L26.3 10.2L29.2 8.70002L29.5 9.20002L26 11ZM31.6 8.40002L29.8 2.50002L32.2 1.80002C32.8 1.60002 33.3 1.60002 33.8 1.80002C34.2 2.00002 34.5 2.30002 34.7 2.90002C34.8 3.20002 34.8 3.60002 34.7 3.90002C34.6 4.20002 34.5 4.40002 34.2 4.70002C34 4.70002 33.7 4.90002 33.3 5.00002L33.4 4.80002L33.6 4.70002C33.8 4.60002 34 4.60002 34.3 4.70002C34.5 4.80002 34.7 4.90002 34.9 5.10002L36.3 6.80002L35.5 7.00002L34.1 5.30002C33.9 5.10002 33.7 5.00002 33.5 4.90002C33.3 4.90002 33 4.90002 32.8 5.00002L31.5 5.40002L32.3 7.90002L31.6 8.40002ZM31.3 5.10002L33 4.60002C33.4 4.50002 33.8 4.30002 33.9 4.00002C34 3.70002 34.1 3.40002 34 3.10002C33.9 2.70002 33.7 2.50002 33.4 2.40002C33.1 2.30002 32.7 2.30002 32.3 2.40002L30.7 2.90002L31.3 5.10002ZM41.6 4.20002L41.5 3.30002L42.4 3.20002L42.5 4.10002L41.6 4.20002Z" fill="white"/>
    <circle cx="45" cy="45" r="3" fill="#D9D9D9"/>
  </g>
  <defs>
    <clipPath id="clip0_55_338">
      <rect width="90.4" height="90.1" fill="white"/>
    </clipPath>
  </defs>
</svg>